<svg width="12" height="12" viewBox="0 0 12 12" fill="none" xmlns="http://www.w3.org/2000/svg">
<path d="M2.73333 9.18474H3.73333L3.73333 5.84039L2.73333 5.84039L2.73333 9.18474ZM8.26667 9.18474H9.26667L9.26667 2.33289H8.26667L8.26667 9.18474ZM5.5 9.18474L6.5 9.18474L6.5 7.2597H5.5L5.5 9.18474ZM5.5 5.84039H6.5V4.86155H5.5V5.84039ZM1 11.746C0.733333 11.746 0.5 11.6481 0.3 11.4524C0.1 11.2566 0 11.0282 0 10.7672L0 0.978836C0 0.717813 0.1 0.489418 0.3 0.293651C0.5 0.0978836 0.733333 0 1 0L11 0C11.2667 0 11.5 0.0978836 11.7 0.293651C11.9 0.489418 12 0.717813 12 0.978836L12 10.7672C12 11.0282 11.9 11.2566 11.7 11.4524C11.5 11.6481 11.2667 11.746 11 11.746L1 11.746ZM1 10.7672L11 10.7672L11 0.978836L1 0.978836L1 10.7672ZM1 0.978836L1 10.7672L1 0.978836Z" fill="#1C1C1C"/>
</svg>
