<svg width="10" height="12" viewBox="0 0 10 12" fill="none" xmlns="http://www.w3.org/2000/svg">
<path d="M0.857143 12C0.619048 12 0.416667 11.9167 0.25 11.75C0.0833333 11.5833 0 11.381 0 11.1429V4.94286C0 4.70476 0.0833333 4.50238 0.25 4.33571C0.416667 4.16905 0.619048 4.08571 0.857143 4.08571H1.85714V2.71429C1.85714 1.9619 2.12143 1.32143 2.65 0.792857C3.17857 0.264286 3.81905 0 4.57143 0C5.32381 0 5.96429 0.264286 6.49286 0.792857C7.02143 1.32143 7.28571 1.9619 7.28571 2.71429V4.08571H8.28572C8.52381 4.08571 8.72619 4.16905 8.89286 4.33571C9.05952 4.50238 9.14286 4.70476 9.14286 4.94286V11.1429C9.14286 11.381 9.05952 11.5833 8.89286 11.75C8.72619 11.9167 8.52381 12 8.28572 12H0.857143ZM0.857143 11.1429H8.28572V4.94286H0.857143V11.1429ZM4.57143 9.14286C4.87619 9.14286 5.13571 9.0381 5.35 8.82857C5.56429 8.61905 5.67143 8.36667 5.67143 8.07143C5.67143 7.78571 5.56429 7.52619 5.35 7.29286C5.13571 7.05952 4.87619 6.94286 4.57143 6.94286C4.26667 6.94286 4.00714 7.05952 3.79286 7.29286C3.57857 7.52619 3.47143 7.78571 3.47143 8.07143C3.47143 8.36667 3.57857 8.61905 3.79286 8.82857C4.00714 9.0381 4.26667 9.14286 4.57143 9.14286ZM2.71429 4.08571H6.42857V2.71429C6.42857 2.2 6.24762 1.7619 5.88571 1.4C5.52381 1.0381 5.08571 0.857143 4.57143 0.857143C4.05714 0.857143 3.61905 1.0381 3.25714 1.4C2.89524 1.7619 2.71429 2.2 2.71429 2.71429V4.08571ZM0.857143 11.1429V4.94286V11.1429Z" fill="#1C1C1C"/>
</svg>
