<svg width="22" height="22" viewBox="0 0 22 22" fill="none" xmlns="http://www.w3.org/2000/svg">
<rect x="0.25" y="0.25" width="21.5" height="21.5" rx="1.75" stroke="black" stroke-width="0.5"/>
<path d="M7.96885 12.0895L7.55674 11.8063L7.71047 11.5826L7.98186 11.5896L7.96885 12.0895ZM12.1991 12.1995L12.5947 12.5054L12.4396 12.706L12.1861 12.6994L12.1991 12.1995ZM17.566 4.68081C17.8399 4.64578 18.0903 4.83943 18.1253 5.11334L18.6962 9.57699C18.7312 9.85091 18.5375 10.1014 18.2636 10.1364C17.9897 10.1714 17.7393 9.97775 17.7042 9.70384L17.1968 5.73615L13.2291 6.24354C12.9552 6.27857 12.7048 6.08492 12.6698 5.81101C12.6347 5.53709 12.8284 5.28665 13.1023 5.25162L17.566 4.68081ZM3.90137 17.1268L7.55674 11.8063L8.38096 12.3726L4.72559 17.693L3.90137 17.1268ZM7.98186 11.5896L12.2121 11.6997L12.1861 12.6994L7.95585 12.5893L7.98186 11.5896ZM11.8036 11.8937L17.2338 4.87092L18.0249 5.48262L12.5947 12.5054L11.8036 11.8937Z" fill="black"/>
</svg>
