<svg width="22" height="22" viewBox="0 0 22 22" fill="none" xmlns="http://www.w3.org/2000/svg">
<rect x="0.25" y="-0.25" width="21.5" height="21.5" rx="1.75" transform="matrix(1 0 0 -1 0 21.5)" stroke="black" stroke-width="0.5"/>
<path d="M7.96885 9.91054L7.55674 10.1937L7.71047 10.4174L7.98186 10.4104L7.96885 9.91054ZM12.1991 9.80047L12.5947 9.49462L12.4396 9.29405L12.1861 9.30064L12.1991 9.80047ZM17.566 17.3192C17.8399 17.3542 18.0903 17.1606 18.1253 16.8867L18.6962 12.423C18.7312 12.1491 18.5375 11.8986 18.2636 11.8636C17.9897 11.8286 17.7393 12.0222 17.7042 12.2962L17.1968 16.2638L13.2291 15.7565C12.9552 15.7214 12.7048 15.9151 12.6698 16.189C12.6347 16.4629 12.8284 16.7134 13.1023 16.7484L17.566 17.3192ZM3.90137 4.87322L7.55674 10.1937L8.38096 9.6274L4.72559 4.30695L3.90137 4.87322ZM7.98186 10.4104L12.2121 10.3003L12.1861 9.30064L7.95585 9.41071L7.98186 10.4104ZM11.8036 10.1063L17.2338 17.1291L18.0249 16.5174L12.5947 9.49462L11.8036 10.1063Z" fill="black"/>
</svg>
