<svg xmlns="http://www.w3.org/2000/svg" viewBox="0 0 170.98 43"><defs><style>.cls-1{fill:#cd1626;}</style></defs><title>Asset 2</title><g id="Layer_2" data-name="Layer 2"><g id="Layer_1-2" data-name="Layer 1"><path class="cls-1" d="M83.19,14.2V26.8c0,2.9-.63,5.05-1.89,6.37a7.32,7.32,0,0,1-5.52,2c-5,0-7.41-2.65-7.41-8.34v-13A5.38,5.38,0,0,0,63,8.43H58.75V27.08c0,5.07,1.52,9,4.51,11.79S70.43,43,75.73,43s9.5-1.39,12.47-4.13,4.52-6.72,4.52-11.79V8.43H89A5.78,5.78,0,0,0,83.19,14.2Z"/><path class="cls-1" d="M167.22,8.43a5.78,5.78,0,0,0-5.77,5.77V26.8c0,2.9-.63,5.05-1.89,6.37a7.32,7.32,0,0,1-5.52,2c-5,0-7.41-2.65-7.41-8.34v-13a5.38,5.38,0,0,0-5.38-5.38H137V27.08c0,5.07,1.52,9,4.51,11.79S148.69,43,154,43s9.5-1.39,12.47-4.13S171,32.15,171,27.08V8.43Z"/><path class="cls-1" d="M80.45,8.26A4.66,4.66,0,0,0,79.31.33L78.56,0,72.29,8.74h6.77A2.27,2.27,0,0,0,80.45,8.26Z"/><path class="cls-1" d="M130.27,27.78a11.8,11.8,0,0,0,1.88-6.69,12,12,0,0,0-1.85-6.7A12,12,0,0,0,125.06,10a18.86,18.86,0,0,0-7.83-1.51H98.46V42.61h4.14a5,5,0,0,0,5-5V33.55h9.61l4.74,6.84a5.16,5.16,0,0,0,4.24,2.22h7.32l-7.63-10.93A11.64,11.64,0,0,0,130.27,27.78Zm-8.81-3.11a7.14,7.14,0,0,1-4.65,1.3h-9.24V16.22h9.24a7.2,7.2,0,0,1,4.65,1.28,4.34,4.34,0,0,1,1.48,3.59A4.4,4.4,0,0,1,121.46,24.67Z"/><path class="cls-1" d="M44.46,11.67,38.32,30.35,32.63,14.56a5.47,5.47,0,0,0-10.26-.11l-5.9,15.74L10.75,12.37A5.6,5.6,0,0,0,5.4,8.46H0L9.88,38.53A6.49,6.49,0,0,0,16.06,43h.49A5.89,5.89,0,0,0,22,39.26L27.53,25,32.35,38.8A6.27,6.27,0,0,0,38.26,43h.68a5.73,5.73,0,0,0,5.45-4l10-30.59H48.89A4.65,4.65,0,0,0,44.46,11.67Z"/></g></g></svg>